<svg width="58" height="54" viewBox="0 0 58 54" fill="none" xmlns="http://www.w3.org/2000/svg">
<path d="M20.504 53.6998H1.81256C0.874139 53.6998 0.113342 52.939 0.113342 52.0005V31.6099C0.113342 30.6715 0.874139 29.9107 1.81256 29.9107H20.504C21.4424 29.9107 22.2032 30.6715 22.2032 31.6099V52.0005C22.2032 52.939 21.4424 53.6998 20.504 53.6998Z" fill="#FB9333"/>
<path d="M20.504 29.9107H10.3087V53.6998H20.504C21.4424 53.6998 22.2032 52.939 22.2032 52.0005V31.6099C22.2032 30.6715 21.4424 29.9107 20.504 29.9107Z" fill="#FB9333"/>
<path d="M52.4676 9.35211L47.918 7.53961L42.9153 9.35211L41.4726 21.6146C41.416 22.0965 41.568 22.5796 41.8904 22.9422C42.2128 23.3048 42.675 23.5123 43.1602 23.5123H52.2227C52.7079 23.5123 53.1699 23.3048 53.4924 22.9422C53.815 22.5796 53.9669 22.0965 53.9102 21.6146L52.4676 9.35211Z" fill="#FB9333"/>
<path d="M53.9099 21.6146L52.4673 9.35211L47.9177 7.53961L47.6911 7.62174V23.5123H52.2224C52.7075 23.5123 53.1696 23.3048 53.4921 22.9422C53.8146 22.5796 53.9666 22.0964 53.9099 21.6146Z" fill="#FB9333"/>
<path d="M24.4804 21.6146C24.4238 22.0965 24.5758 22.5796 24.8982 22.9422C25.2206 23.3048 25.6828 23.5123 26.168 23.5123H35.2305C35.7157 23.5123 36.1778 23.3048 36.5003 22.9422C36.8228 22.5796 36.9747 22.0965 36.918 21.6146L35.4754 9.35211L30.8125 6.63336L25.9231 9.35211L24.4804 21.6146Z" fill="#FB9333"/>
<path d="M36.9177 21.6146L35.4751 9.35211L30.8122 6.63336L30.6989 6.69635V23.5123H35.2302C35.7153 23.5123 36.1774 23.3048 36.4999 22.9422C36.8224 22.5796 36.9744 22.0964 36.9177 21.6146Z" fill="#FB9333"/>
<path d="M51.6447 2.35677C51.5441 1.50093 50.8188 0.856018 49.9572 0.856018H45.4259C44.5643 0.856018 43.839 1.50093 43.7384 2.35677L42.9154 9.35211H52.4678L51.6447 2.35677Z" fill="#FFAC37"/>
<path d="M51.6443 2.35677C51.5437 1.50093 50.8183 0.856018 49.9567 0.856018H47.6911V9.35211H52.4673L51.6443 2.35677Z" fill="#FFAC37"/>
<path d="M32.965 0.856018H28.4338C27.5721 0.856018 26.8468 1.50093 26.7462 2.35677L25.9232 9.35211H35.4757L34.6527 2.35677C34.552 1.50093 33.8266 0.856018 32.965 0.856018Z" fill="#FFAC37"/>
<path d="M34.6521 2.35677C34.5515 1.50093 33.8262 0.856018 32.9645 0.856018H30.6989V9.35211H35.4751L34.6521 2.35677Z" fill="#FFAC37"/>
<path d="M6.91022 43.5045C5.9718 43.5045 5.211 42.7437 5.211 41.8052V38.4068C5.211 37.4684 5.9718 36.7076 6.91022 36.7076C7.84864 36.7076 8.60944 37.4684 8.60944 38.4068V41.8052C8.60944 42.7437 7.84864 43.5045 6.91022 43.5045Z" fill="#FFF8EE"/>
<path d="M13.7071 43.5045C12.7687 43.5045 12.0079 42.7437 12.0079 41.8052V38.4068C12.0079 37.4684 12.7687 36.7076 13.7071 36.7076C14.6455 36.7076 15.4063 37.4684 15.4063 38.4068V41.8052C15.4063 42.7437 14.6455 43.5045 13.7071 43.5045Z" fill="white"/>
<path d="M44.293 53.6998H56.1876C57.126 53.6998 57.8868 52.939 57.8868 52.0005V24.813C57.8868 23.8746 57.126 23.1138 56.1876 23.1138H22.2032C21.2648 23.1138 20.504 23.8746 20.504 24.813V53.6998H34.0977L38.9688 52.7935L44.293 53.6998Z" fill="#FFAC37"/>
<path d="M56.1876 23.1138H39.1954V52.832L44.293 53.6998H56.1876C57.126 53.6998 57.8868 52.939 57.8868 52.0005V24.813C57.8868 23.8746 57.126 23.1138 56.1876 23.1138Z" fill="#FFAC37"/>
<path d="M29.0001 46.9029C28.0616 46.9029 27.3008 46.1421 27.3008 45.2037V41.8052C27.3008 40.8668 28.0616 40.106 29.0001 40.106C29.9385 40.106 30.6993 40.8668 30.6993 41.8052V45.2037C30.6993 46.1421 29.9385 46.9029 29.0001 46.9029Z" fill="#FFF8EE"/>
<path d="M29.0001 36.7076C28.0616 36.7076 27.3008 35.9468 27.3008 35.0084V31.6099C27.3008 30.6715 28.0616 29.9107 29.0001 29.9107C29.9385 29.9107 30.6993 30.6715 30.6993 31.6099V35.0084C30.6993 35.9468 29.9385 36.7076 29.0001 36.7076Z" fill="#FFF8EE"/>
<path d="M49.3907 46.9029C48.4523 46.9029 47.6915 46.1421 47.6915 45.2037V41.8052C47.6915 40.8668 48.4523 40.106 49.3907 40.106C50.3291 40.106 51.0899 40.8668 51.0899 41.8052V45.2037C51.0899 46.1421 50.3291 46.9029 49.3907 46.9029Z" fill="white"/>
<path d="M49.3907 36.7076C48.4523 36.7076 47.6915 35.9468 47.6915 35.0084V31.6099C47.6915 30.6715 48.4523 29.9107 49.3907 29.9107C50.3291 29.9107 51.0899 30.6715 51.0899 31.6099V35.0084C51.0899 35.9468 50.3291 36.7076 49.3907 36.7076Z" fill="white"/>
<path d="M35.7969 36.7076C34.8585 36.7076 34.0977 35.9468 34.0977 35.0084V31.6099C34.0977 30.6715 34.8585 29.9107 35.7969 29.9107C36.7354 29.9107 37.4962 30.6715 37.4962 31.6099V35.0084C37.4962 35.9468 36.7354 36.7076 35.7969 36.7076Z" fill="#FFF8EE"/>
<path d="M42.5938 36.7076C41.6554 36.7076 40.8946 35.9468 40.8946 35.0084V31.6099C40.8946 30.6715 41.6554 29.9107 42.5938 29.9107C43.5322 29.9107 44.293 30.6715 44.293 31.6099V35.0084C44.293 35.9468 43.5322 36.7076 42.5938 36.7076Z" fill="white"/>
<path d="M42.5938 40.106H35.7969C34.8585 40.106 34.0977 40.8668 34.0977 41.8052V53.6998H37.4962L39.0821 52.567L40.8946 53.6998H44.293V41.8052C44.293 40.8668 43.5322 40.106 42.5938 40.106Z" fill="#FFF8EE"/>
<path d="M42.5938 40.106H39.1954V52.6378L40.8946 53.6998H44.293V41.8052C44.293 40.8668 43.5322 40.106 42.5938 40.106Z" fill="white"/>
<path d="M37.4962 43.5045H40.8946V53.6998H37.4962V43.5045Z" fill="#FFAC37"/>
<path d="M39.1954 43.5045H40.8946V53.6998H39.1954V43.5045Z" fill="#FFAC37"/>
</svg>
